<?xml version="1.0" standalone="no"?>
<!DOCTYPE svg PUBLIC "-//W3C//DTD SVG 20010904//EN"
 "http://www.w3.org/TR/2001/REC-SVG-20010904/DTD/svg10.dtd">
<svg version="1.0" xmlns="http://www.w3.org/2000/svg"
 width="700.000000pt" height="700.000000pt" viewBox="0 0 700.000000 700.000000"
 preserveAspectRatio="xMidYMid meet">
<metadata>
Created by potrace 1.11, written by Peter Selinger 2001-2013
</metadata>
<g transform="translate(0.000000,700.000000) scale(0.100000,-0.100000)"
fill="#000000" stroke="none">
<path d="M3387 6124 c-1 -1 -42 -5 -92 -8 -49 -3 -99 -8 -111 -10 -12 -2 -45
-7 -75 -11 -159 -20 -468 -103 -591 -159 -18 -8 -55 -24 -83 -37 -590 -259
-1079 -750 -1340 -1346 -45 -103 -128 -340 -139 -398 -3 -16 -14 -70 -25 -120
-10 -49 -22 -110 -25 -135 -3 -25 -8 -55 -10 -68 -24 -120 -24 -533 0 -672 2
-14 7 -41 10 -60 88 -557 342 -1057 739 -1454 90 -90 149 -141 325 -279 99
-78 459 -276 550 -302 14 -4 39 -13 55 -21 102 -45 360 -113 530 -139 354 -54
747 -31 1080 61 210 59 387 130 565 227 128 70 117 63 263 165 363 256 645
586 842 987 155 317 236 612 262 960 11 158 5 437 -13 529 -2 11 -6 38 -9 61
-38 262 -130 549 -253 790 -58 114 -157 279 -177 295 -8 7 -15 17 -15 22 0 25
-178 237 -305 363 -106 105 -137 133 -225 200 -36 28 -67 52 -70 55 -10 11
-207 138 -260 168 -331 184 -693 295 -1069 328 -67 6 -329 12 -334 8z"/>
</g>
</svg>
