<?xml version="1.0" standalone="no"?>
<!DOCTYPE svg PUBLIC "-//W3C//DTD SVG 20010904//EN"
 "http://www.w3.org/TR/2001/REC-SVG-20010904/DTD/svg10.dtd">
<svg version="1.0" xmlns="http://www.w3.org/2000/svg"
 width="700.000000pt" height="700.000000pt" viewBox="0 0 700.000000 700.000000"
 preserveAspectRatio="xMidYMid meet">
<metadata>
Created by potrace 1.11, written by Peter Selinger 2001-2013
</metadata>
<g transform="translate(0.000000,700.000000) scale(0.100000,-0.100000)"
fill="#000000" stroke="none">
<path d="M2778 5641 c-649 -232 -1172 -789 -1372 -1461 -64 -214 -89 -400 -89
-650 0 -347 73 -657 228 -974 106 -217 241 -403 424 -587 184 -183 370 -318
587 -424 318 -156 631 -229 979 -228 376 0 668 68 1002 230 502 244 933 727
1107 1243 39 117 45 120 -68 -33 -33 -44 -100 -121 -150 -171 -616 -622 -1544
-779 -2322 -393 -330 163 -607 412 -809 727 -226 352 -341 808 -306 1220 43
500 246 938 597 1286 50 50 127 117 171 150 131 97 138 103 133 103 -3 0 -53
-17 -112 -38z"/>
</g>
</svg>
