<svg width="504" height="242" viewBox="0 0 504 242" fill="none" xmlns="http://www.w3.org/2000/svg">
<path d="M70.7648 160.624L61.7384 150.323L93.1647 123.323V124.358L93.1251 124.401L93.1647 124.446V134.976L70.7648 160.624Z" transform="translate(7.41176 8.47059) scale(1.05882)" fill="#04E762"/>
<path fill-rule="evenodd" clip-rule="evenodd" d="M116.825 63.52L144.601 95.216V142.368L128.585 160.624L96.8887 124.448L100.809 120.192V90.736L96.7767 86.368L116.825 63.52ZM116.825 122.32L128.473 135.424V100.368L116.825 87.152V122.32Z" transform="translate(7.41176 8.47059) scale(1.05882)" fill="#04E762"/>
<path d="M152.637 79.2L145.469 71.024H164.733L178.285 86.48L191.949 71.024H204.045V160.624L187.917 142.368V97.68L178.285 108.544L168.765 97.68V160.624L148.829 138L152.637 133.632V79.2Z" transform="translate(7.41176 8.47059) scale(1.05882)" fill="#04E762"/>
<path d="M264.42 73.2174L262.486 71.024H252.324L238.66 86.48L225.108 71.024H206.845V72.1657L213.012 79.2V133.632L209.204 138L209.365 138.183L229.14 121.194V97.68L238.66 108.544L248.292 97.68V104.74L264.42 90.8833V73.2174Z" transform="translate(7.41176 8.47059) scale(1.05882)" fill="#04E762"/>
<path d="M266.219 71.024H302.395L317.179 88.048H297.355L305.307 96.56L289.627 114.48V136.88L311.915 111.456V134.976L289.515 160.624L269.691 138L273.499 133.632V104.736L284.587 91.856L266.219 71.024Z" transform="translate(7.41176 8.47059) scale(1.05882)" fill="#04E762"/>
<path d="M70.8768 124.356L54.5964 142.172L50.9408 138L54.7487 133.632V88.048H62.4767L47.4688 71.024H79.2767L94.1728 88.048H70.8768V124.356Z" transform="translate(7.41176 8.47059) scale(1.05882)" fill="#04E762"/>
<path d="M248.292 132.494L264.42 114.845V160.624L248.292 142.368V132.494Z" transform="translate(7.41176 8.47059) scale(1.05882)" fill="#04E762"/>
<path d="M225.923 156.973L229.14 153.453V160.624L225.923 156.973Z" transform="translate(7.41176 8.47059) scale(1.05882)" fill="#04E762"/>
<path fill-rule="evenodd" clip-rule="evenodd" d="M336.871 75.504L344.039 67.44L366.327 92.752L354.456 106.192L360.055 117.168L364.311 114.48V160.512L336.983 107.648V160.624L317.047 138L320.855 133.632V79.2L313.688 71.024H332.951L336.871 75.504ZM345.047 96L336.983 86.816V105.184L345.047 96Z" transform="translate(7.41176 8.47059) scale(1.05882)" fill="#04E762"/>
<path d="M364.984 71.024L379.992 88.048H372.264V133.632L368.456 138L388.28 160.624L410.68 134.976V111.456L388.392 136.88V88.048H411.688L396.792 71.024H364.984Z" transform="translate(7.41176 8.47059) scale(1.05882)" fill="#04E762"/>
<path d="M446.66 71.024L461.444 88.048H441.62L449.572 96.56L433.892 114.48V136.88L456.18 111.456V134.976L433.78 160.624L413.956 138L417.764 133.632V104.736L428.852 91.856L410.484 71.024H446.66Z" transform="translate(7.41176 8.47059) scale(1.05882)" fill="#04E762"/>
<path d="M0 71.024H36.176L50.96 88.048H31.136L39.088 96.56L23.408 114.48V136.88L45.696 111.456V134.976L23.296 160.624L3.472 138L7.28 133.632V104.736L18.368 91.856L0 71.024Z" transform="translate(7.41176 8.47059) scale(1.05882)" fill="#04E762"/>
<path d="M98.0087 115.206V99.1113L29.576 174L98.0087 115.206Z" transform="translate(7.41176 8.47059) scale(1.05882)" fill="#00FFFF"/>
<path d="M119.625 94.5636L120.663 95.7419L119.625 96.6342V94.5636Z" transform="translate(7.41176 8.47059) scale(1.05882)" fill="#00FFFF"/>
<path d="M125.435 69.0974L136.706 81.9587L145.048 74.7916L139.29 68.224H152.692L171.576 52V74.5816L178.293 82.2428L188.576 70.6116V0L125.435 69.0974Z" transform="translate(7.41176 8.47059) scale(1.05882)" fill="#00FFFF"/>
<path d="M295.397 68.224H302.958L330.576 38L295.397 68.224Z" transform="translate(7.41176 8.47059) scale(1.05882)" fill="#00FFFF"/>
<path d="M206.845 144.304V168.023L194.933 154.539L188.576 160V147.343L185.117 143.428V105.059L178.272 112.779L171.576 105.137V212L273.237 100.749L280.873 91.878L275.267 85.5193L206.845 144.304Z" transform="translate(7.41176 8.47059) scale(1.05882)" fill="#00FFFF"/>
<path fill-rule="evenodd" clip-rule="evenodd" d="M104.654 122.936V106.842L36.2208 181.73L104.654 122.936ZM66.1075 160.008L38.1758 184.006L34.0061 179.707L59.2049 152.131L53.6398 145.779L29.9445 172.911L6.13242 145.735L10.9248 140.238V111.353L21.034 99.6099L0 75.7543H44.1888L58.9729 92.7783H62.4775L47.4695 75.7543H87.2828L101.385 91.8708L123.471 66.7001L130.226 74.4089L198.221 0V75.7543H233.112L245.314 89.6704L257.616 75.7543H297.671L335.266 43.4548L339.435 47.754L313.849 75.7543H340.958L343.534 78.6988L350.695 70.6427L375.909 99.278V92.7783H379.993L364.985 75.7543H404.798L424.944 98.7783H398.037V136.637L420.325 111.213V141.482L421.409 140.238V111.353L431.518 99.6098L410.484 75.7543H454.673L474.668 98.7783H455.173L460.261 104.224L443.537 123.337V136.637L465.825 111.213V143.832L440.429 172.911L417.641 146.905L394.929 172.911L373.956 148.976V168.242L368.291 169.62L367.645 168.369L366.645 166.435L346.628 127.714V176.296L319.798 145.849L296.163 172.911L274.065 147.691V176.281L251.937 151.234V143.507L238.785 157.9V176.296L230.532 166.931L216.49 182.299V183.68L215.869 182.978L175.221 227.461V172.678L154.246 148.874V151.228L135.228 172.905L102.81 135.904V143.832L77.4132 172.911L66.1075 160.008ZM102.81 128.536L103.078 128.245L102.81 128.475V128.536ZM68.3831 158.053L77.4095 168.354L99.8095 142.706V132.177L99.7699 132.132L99.8095 132.088V131.053L68.3831 158.053ZM107.454 127.922L103.534 132.178L135.23 168.354L151.246 150.098V102.946L123.47 71.2503L103.422 94.0983L107.454 98.4663V127.922ZM104.454 102.613V99.6392L103.659 98.7783H80.5215V128.803L104.454 102.613ZM77.5215 132.086L61.2411 149.902L57.5855 145.73L61.3935 141.362V95.7783H69.1215L54.1135 78.7543H85.9215L100.818 95.7783H77.5215V132.086ZM58.3935 98.7783H44.6889L49.7767 104.224L33.0528 123.337V136.637L55.3408 111.213V143.74L58.3935 140.238V98.7783ZM30.0528 144.61V122.21L45.7328 104.29L37.7808 95.7783H57.6048L42.8208 78.7543H6.64477L25.0128 99.5863L13.9248 112.466V141.362L10.1168 145.73L29.9408 168.354L52.3408 142.706V119.186L30.0528 144.61ZM145.48 91.815L154.246 101.818V142.574L156.282 140.238V88.0591L153.519 84.9081L145.48 91.815ZM151.693 82.5219L143.351 89.689L132.08 76.8276L195.221 7.73029V78.3419L184.938 89.9731L178.221 82.3119V59.7303L159.337 75.9543H145.935L151.693 82.5219ZM159.282 86.9303V141.362L155.474 145.73L175.41 168.354V105.41L184.93 116.274L194.562 105.41V150.098L210.69 168.354V78.7543H198.594L184.93 94.2103L171.378 78.7543H152.114L159.282 86.9303ZM164.173 75.7543H172.737L175.221 78.587V66.2629L164.173 75.7543ZM213.69 84.6749V143.642L216.657 140.238V88.0591L213.69 84.6749ZM219.657 86.9303V141.362L215.851 145.728L215.849 145.73L216.01 145.914L235.785 128.925V105.41L245.305 116.274L254.937 105.41V112.47L271.065 98.6136V80.9477L269.131 78.7543H258.969L245.305 94.2103L231.753 78.7543H213.49V79.896L219.657 86.9303ZM274.065 84.6525V96.0361L279.775 91.1296L274.065 84.6525ZM291.232 99.5863L280.143 112.466V141.362L276.336 145.73L296.159 168.354L318.56 142.706V119.186L296.271 144.61V122.21L311.951 104.29L304 95.7783H323.823L309.039 78.7543H272.864L291.232 99.5863ZM312.084 77.6852L324.5 91.9822V88.0592L313.779 75.8305L312.084 77.6852ZM327.5 86.9303V141.362L323.692 145.73L343.628 168.354V115.378L370.956 168.242V122.21L366.7 124.898L361.1 113.922L372.972 100.482L350.684 75.1703L343.516 83.2343L339.596 78.7543H320.332L327.5 86.9303ZM364.701 114.378L367.878 120.606L373.956 116.767V142.478L375.909 140.238V101.689L364.701 114.378ZM378.909 141.362L375.101 145.73L394.925 168.354L417.325 142.706V119.186L395.037 144.61V95.7783H418.333L403.437 78.7543H371.629L386.637 95.7783H378.909V141.362ZM324.5 140.238V98.7783H310.908L315.995 104.224L299.271 123.337V136.637L321.56 111.213V143.611L324.5 140.238ZM277.143 140.238V115.923L274.065 119.292V143.77L277.143 140.238ZM271.065 122.575V168.354L254.937 150.098V140.224L271.065 122.575ZM279.881 108.479L287.518 99.6083L281.911 93.2496L213.49 152.035V175.753L201.577 162.269L195.221 167.73V155.074L191.762 151.158V112.789L184.917 120.509L178.221 112.867V219.73L279.881 108.479ZM198.221 158.772V161.198L199.439 160.151L198.221 158.772ZM213.69 147.908L213.735 147.869L213.69 147.818V147.908ZM238.785 126.347L245.264 120.78L238.785 113.386V126.347ZM245.494 120.582L251.937 115.047V113.316L245.494 120.582ZM232.568 164.704L235.785 168.354V161.183L232.568 164.704ZM440.537 144.61V122.21L456.217 104.29L448.265 95.7783H468.089L453.305 78.7543H417.129L435.497 99.5863L424.409 112.466V141.362L420.601 145.73L440.425 168.354L462.825 142.706V119.186L440.537 144.61ZM302.042 75.9543L337.221 45.7303L309.602 75.9543H302.042ZM135.118 108.098V143.154L123.47 130.05V94.8823L135.118 108.098ZM127.308 103.472L126.27 102.294V104.364L127.308 103.472ZM126.47 108.148L129.14 105.853L132.118 109.232V135.264L126.47 128.91V108.148ZM343.628 94.5463V112.914L351.692 103.73L343.628 94.5463ZM346.628 102.51V104.951L347.7 103.73L346.628 102.51Z" transform="translate(0.37612 0.285572) scale(1.05882)" fill="black"/>
<path d="M373.956 168.242L368.291 169.62L373.956 180.6V168.242Z" transform="translate(0.37612 0.285572) scale(1.05882)" fill="black"/>
</svg>
